<mxfile host="app.diagrams.net" modified="2023-10-05T11:58:59.132Z" agent="Mozilla/5.0 (Windows NT 10.0; Win64; x64) AppleWebKit/537.36 (KHTML, like Gecko) Chrome/117.0.0.0 Safari/537.36 Edg/117.0.2045.47" etag="HV2MO0kiUJgdpCvS7t1G" version="21.8.0" type="device">
  <diagram name="Страница — 1" id="mYIGilg4WXTzvYPehGX0">
    <mxGraphModel dx="1002" dy="577" grid="1" gridSize="10" guides="1" tooltips="1" connect="1" arrows="1" fold="1" page="1" pageScale="1" pageWidth="827" pageHeight="1169" math="0" shadow="0">
      <root>
        <mxCell id="0" />
        <mxCell id="1" parent="0" />
        <mxCell id="nJJaMMxl7a4ijngkDydp-1" value="Бухгалтер" style="shape=umlActor;verticalLabelPosition=bottom;verticalAlign=top;html=1;outlineConnect=0;" vertex="1" parent="1">
          <mxGeometry x="450" y="40" width="30" height="60" as="geometry" />
        </mxCell>
        <mxCell id="nJJaMMxl7a4ijngkDydp-2" value="Менеджер" style="shape=umlActor;verticalLabelPosition=bottom;verticalAlign=top;html=1;outlineConnect=0;" vertex="1" parent="1">
          <mxGeometry x="90" y="40" width="30" height="60" as="geometry" />
        </mxCell>
        <mxCell id="nJJaMMxl7a4ijngkDydp-3" value="Счёт" style="rounded=0;whiteSpace=wrap;html=1;" vertex="1" parent="1">
          <mxGeometry x="240" y="50" width="80" height="40" as="geometry" />
        </mxCell>
        <mxCell id="nJJaMMxl7a4ijngkDydp-4" value="Заказ" style="rounded=0;whiteSpace=wrap;html=1;" vertex="1" parent="1">
          <mxGeometry x="150" y="50" width="80" height="40" as="geometry" />
        </mxCell>
        <mxCell id="nJJaMMxl7a4ijngkDydp-5" value="Накладные" style="rounded=0;whiteSpace=wrap;html=1;" vertex="1" parent="1">
          <mxGeometry x="334" y="50" width="80" height="40" as="geometry" />
        </mxCell>
        <mxCell id="nJJaMMxl7a4ijngkDydp-7" value="" style="endArrow=none;dashed=1;html=1;rounded=0;" edge="1" parent="1">
          <mxGeometry width="50" height="50" relative="1" as="geometry">
            <mxPoint x="100" y="520" as="sourcePoint" />
            <mxPoint x="100" y="130" as="targetPoint" />
          </mxGeometry>
        </mxCell>
        <mxCell id="nJJaMMxl7a4ijngkDydp-12" value="" style="endArrow=none;dashed=1;html=1;rounded=0;" edge="1" parent="1">
          <mxGeometry width="50" height="50" relative="1" as="geometry">
            <mxPoint x="625" y="330" as="sourcePoint" />
            <mxPoint x="624.5" y="130" as="targetPoint" />
          </mxGeometry>
        </mxCell>
        <mxCell id="nJJaMMxl7a4ijngkDydp-13" value="" style="endArrow=none;dashed=1;html=1;rounded=0;" edge="1" parent="1">
          <mxGeometry width="50" height="50" relative="1" as="geometry">
            <mxPoint x="465" y="520" as="sourcePoint" />
            <mxPoint x="464.5" y="130" as="targetPoint" />
          </mxGeometry>
        </mxCell>
        <mxCell id="nJJaMMxl7a4ijngkDydp-14" value="" style="endArrow=none;dashed=1;html=1;rounded=0;entryX=0.5;entryY=1;entryDx=0;entryDy=0;" edge="1" parent="1" target="nJJaMMxl7a4ijngkDydp-5">
          <mxGeometry width="50" height="50" relative="1" as="geometry">
            <mxPoint x="370" y="520" as="sourcePoint" />
            <mxPoint x="373.5" y="120" as="targetPoint" />
          </mxGeometry>
        </mxCell>
        <mxCell id="nJJaMMxl7a4ijngkDydp-15" value="" style="endArrow=none;dashed=1;html=1;rounded=0;entryX=0.5;entryY=1;entryDx=0;entryDy=0;" edge="1" parent="1" target="nJJaMMxl7a4ijngkDydp-3">
          <mxGeometry width="50" height="50" relative="1" as="geometry">
            <mxPoint x="280" y="520" as="sourcePoint" />
            <mxPoint x="280" y="120" as="targetPoint" />
          </mxGeometry>
        </mxCell>
        <mxCell id="nJJaMMxl7a4ijngkDydp-16" value="" style="endArrow=none;dashed=1;html=1;rounded=0;entryX=0.5;entryY=1;entryDx=0;entryDy=0;" edge="1" parent="1" target="nJJaMMxl7a4ijngkDydp-4">
          <mxGeometry width="50" height="50" relative="1" as="geometry">
            <mxPoint x="190" y="520" as="sourcePoint" />
            <mxPoint x="189.5" y="130" as="targetPoint" />
          </mxGeometry>
        </mxCell>
        <mxCell id="nJJaMMxl7a4ijngkDydp-17" value="" style="rounded=0;whiteSpace=wrap;html=1;" vertex="1" parent="1">
          <mxGeometry x="180" y="150" width="20" height="50" as="geometry" />
        </mxCell>
        <mxCell id="nJJaMMxl7a4ijngkDydp-19" value="" style="rounded=0;whiteSpace=wrap;html=1;" vertex="1" parent="1">
          <mxGeometry x="270" y="350" width="20" height="50" as="geometry" />
        </mxCell>
        <mxCell id="nJJaMMxl7a4ijngkDydp-24" value="" style="endArrow=blockThin;html=1;rounded=0;startArrow=none;startFill=0;endFill=1;exitX=1;exitY=1;exitDx=0;exitDy=0;" edge="1" parent="1" source="nJJaMMxl7a4ijngkDydp-40">
          <mxGeometry width="50" height="50" relative="1" as="geometry">
            <mxPoint x="300" y="260" as="sourcePoint" />
            <mxPoint x="460" y="270" as="targetPoint" />
          </mxGeometry>
        </mxCell>
        <mxCell id="nJJaMMxl7a4ijngkDydp-58" value="Послать" style="edgeLabel;html=1;align=center;verticalAlign=middle;resizable=0;points=[];" vertex="1" connectable="0" parent="nJJaMMxl7a4ijngkDydp-24">
          <mxGeometry x="0.5388" y="-2" relative="1" as="geometry">
            <mxPoint as="offset" />
          </mxGeometry>
        </mxCell>
        <mxCell id="nJJaMMxl7a4ijngkDydp-25" value="" style="endArrow=open;html=1;rounded=0;startArrow=none;startFill=0;endFill=0;entryX=1;entryY=0;entryDx=0;entryDy=0;" edge="1" parent="1" target="nJJaMMxl7a4ijngkDydp-39">
          <mxGeometry width="50" height="50" relative="1" as="geometry">
            <mxPoint x="460" y="300" as="sourcePoint" />
            <mxPoint x="590" y="350" as="targetPoint" />
          </mxGeometry>
        </mxCell>
        <mxCell id="nJJaMMxl7a4ijngkDydp-59" value="Нач.&lt;br&gt;оформ." style="edgeLabel;html=1;align=center;verticalAlign=middle;resizable=0;points=[];" vertex="1" connectable="0" parent="nJJaMMxl7a4ijngkDydp-25">
          <mxGeometry x="-0.0737" y="-1" relative="1" as="geometry">
            <mxPoint as="offset" />
          </mxGeometry>
        </mxCell>
        <mxCell id="nJJaMMxl7a4ijngkDydp-26" value="" style="endArrow=blockThin;html=1;rounded=0;startArrow=none;startFill=0;endFill=1;" edge="1" parent="1">
          <mxGeometry width="50" height="50" relative="1" as="geometry">
            <mxPoint x="625" y="190" as="sourcePoint" />
            <mxPoint x="735" y="190" as="targetPoint" />
            <Array as="points" />
          </mxGeometry>
        </mxCell>
        <mxCell id="nJJaMMxl7a4ijngkDydp-62" value="Взять" style="edgeLabel;html=1;align=center;verticalAlign=middle;resizable=0;points=[];" vertex="1" connectable="0" parent="nJJaMMxl7a4ijngkDydp-26">
          <mxGeometry x="0.1782" y="-4" relative="1" as="geometry">
            <mxPoint as="offset" />
          </mxGeometry>
        </mxCell>
        <mxCell id="nJJaMMxl7a4ijngkDydp-27" value="" style="endArrow=open;html=1;rounded=0;startArrow=none;startFill=0;endFill=0;dashed=1;exitX=0;exitY=1;exitDx=0;exitDy=0;entryX=1;entryY=0;entryDx=0;entryDy=0;" edge="1" parent="1" source="nJJaMMxl7a4ijngkDydp-39" target="nJJaMMxl7a4ijngkDydp-19">
          <mxGeometry width="50" height="50" relative="1" as="geometry">
            <mxPoint x="360" y="450" as="sourcePoint" />
            <mxPoint x="300" y="360" as="targetPoint" />
          </mxGeometry>
        </mxCell>
        <mxCell id="nJJaMMxl7a4ijngkDydp-60" value="Дополн." style="edgeLabel;html=1;align=center;verticalAlign=middle;resizable=0;points=[];" vertex="1" connectable="0" parent="nJJaMMxl7a4ijngkDydp-27">
          <mxGeometry x="-0.0216" y="1" relative="1" as="geometry">
            <mxPoint as="offset" />
          </mxGeometry>
        </mxCell>
        <mxCell id="nJJaMMxl7a4ijngkDydp-29" value="" style="endArrow=open;html=1;rounded=0;startArrow=none;startFill=0;endFill=0;dashed=1;exitX=0;exitY=1;exitDx=0;exitDy=0;" edge="1" parent="1" source="nJJaMMxl7a4ijngkDydp-44">
          <mxGeometry width="50" height="50" relative="1" as="geometry">
            <mxPoint x="170" y="450" as="sourcePoint" />
            <mxPoint x="100" y="450" as="targetPoint" />
          </mxGeometry>
        </mxCell>
        <mxCell id="nJJaMMxl7a4ijngkDydp-55" value="Зак.&lt;br&gt;оформ." style="edgeLabel;html=1;align=center;verticalAlign=middle;resizable=0;points=[];" vertex="1" connectable="0" parent="nJJaMMxl7a4ijngkDydp-29">
          <mxGeometry x="0.18" relative="1" as="geometry">
            <mxPoint as="offset" />
          </mxGeometry>
        </mxCell>
        <mxCell id="nJJaMMxl7a4ijngkDydp-31" value="" style="endArrow=open;html=1;rounded=0;startArrow=none;startFill=0;endFill=0;dashed=1;exitX=0;exitY=1;exitDx=0;exitDy=0;" edge="1" parent="1" source="nJJaMMxl7a4ijngkDydp-51">
          <mxGeometry width="50" height="50" relative="1" as="geometry">
            <mxPoint x="660" y="271" as="sourcePoint" />
            <mxPoint x="630" y="241" as="targetPoint" />
          </mxGeometry>
        </mxCell>
        <mxCell id="nJJaMMxl7a4ijngkDydp-63" value="Отдать" style="edgeLabel;html=1;align=center;verticalAlign=middle;resizable=0;points=[];" vertex="1" connectable="0" parent="nJJaMMxl7a4ijngkDydp-31">
          <mxGeometry x="-0.0819" y="-3" relative="1" as="geometry">
            <mxPoint as="offset" />
          </mxGeometry>
        </mxCell>
        <mxCell id="nJJaMMxl7a4ijngkDydp-32" value="" style="endArrow=open;html=1;rounded=0;startArrow=none;startFill=0;endFill=0;dashed=1;exitX=0;exitY=1;exitDx=0;exitDy=0;entryX=1;entryY=0;entryDx=0;entryDy=0;" edge="1" parent="1" source="nJJaMMxl7a4ijngkDydp-19" target="nJJaMMxl7a4ijngkDydp-44">
          <mxGeometry width="50" height="50" relative="1" as="geometry">
            <mxPoint x="740" y="330" as="sourcePoint" />
            <mxPoint x="220" y="350" as="targetPoint" />
          </mxGeometry>
        </mxCell>
        <mxCell id="nJJaMMxl7a4ijngkDydp-61" value="Дополн." style="edgeLabel;html=1;align=center;verticalAlign=middle;resizable=0;points=[];" vertex="1" connectable="0" parent="nJJaMMxl7a4ijngkDydp-32">
          <mxGeometry x="-0.0229" relative="1" as="geometry">
            <mxPoint as="offset" />
          </mxGeometry>
        </mxCell>
        <mxCell id="nJJaMMxl7a4ijngkDydp-33" value="" style="endArrow=blockThin;html=1;rounded=0;startArrow=none;startFill=0;endFill=1;exitX=1.06;exitY=0.301;exitDx=0;exitDy=0;exitPerimeter=0;entryX=0;entryY=0;entryDx=0;entryDy=0;" edge="1" parent="1" target="nJJaMMxl7a4ijngkDydp-17">
          <mxGeometry width="50" height="50" relative="1" as="geometry">
            <mxPoint x="100" y="150" as="sourcePoint" />
            <mxPoint x="169" y="150" as="targetPoint" />
          </mxGeometry>
        </mxCell>
        <mxCell id="nJJaMMxl7a4ijngkDydp-54" value="Нач.&lt;br&gt;оформ." style="edgeLabel;html=1;align=center;verticalAlign=middle;resizable=0;points=[];" vertex="1" connectable="0" parent="nJJaMMxl7a4ijngkDydp-33">
          <mxGeometry x="0.02" y="1" relative="1" as="geometry">
            <mxPoint as="offset" />
          </mxGeometry>
        </mxCell>
        <mxCell id="nJJaMMxl7a4ijngkDydp-34" style="edgeStyle=orthogonalEdgeStyle;rounded=0;orthogonalLoop=1;jettySize=auto;html=1;exitX=0.5;exitY=1;exitDx=0;exitDy=0;" edge="1" parent="1" source="nJJaMMxl7a4ijngkDydp-17" target="nJJaMMxl7a4ijngkDydp-17">
          <mxGeometry relative="1" as="geometry" />
        </mxCell>
        <mxCell id="nJJaMMxl7a4ijngkDydp-40" value="" style="rounded=0;whiteSpace=wrap;html=1;" vertex="1" parent="1">
          <mxGeometry x="270" y="220" width="20" height="50" as="geometry" />
        </mxCell>
        <mxCell id="nJJaMMxl7a4ijngkDydp-42" value="" style="endArrow=blockThin;html=1;rounded=0;startArrow=none;startFill=0;endFill=1;exitX=1.06;exitY=0.301;exitDx=0;exitDy=0;exitPerimeter=0;entryX=0;entryY=0;entryDx=0;entryDy=0;" edge="1" parent="1" target="nJJaMMxl7a4ijngkDydp-40">
          <mxGeometry width="50" height="50" relative="1" as="geometry">
            <mxPoint x="100" y="220" as="sourcePoint" />
            <mxPoint x="180" y="220" as="targetPoint" />
          </mxGeometry>
        </mxCell>
        <mxCell id="nJJaMMxl7a4ijngkDydp-57" value="Нач.&lt;br&gt;оформ." style="edgeLabel;html=1;align=center;verticalAlign=middle;resizable=0;points=[];" vertex="1" connectable="0" parent="nJJaMMxl7a4ijngkDydp-42">
          <mxGeometry x="-0.4729" y="-2" relative="1" as="geometry">
            <mxPoint as="offset" />
          </mxGeometry>
        </mxCell>
        <mxCell id="nJJaMMxl7a4ijngkDydp-39" value="" style="rounded=0;whiteSpace=wrap;html=1;" vertex="1" parent="1">
          <mxGeometry x="364" y="300" width="20" height="50" as="geometry" />
        </mxCell>
        <mxCell id="nJJaMMxl7a4ijngkDydp-44" value="" style="rounded=0;whiteSpace=wrap;html=1;" vertex="1" parent="1">
          <mxGeometry x="180" y="400" width="20" height="50" as="geometry" />
        </mxCell>
        <mxCell id="nJJaMMxl7a4ijngkDydp-48" value="Кладовщик" style="shape=umlActor;verticalLabelPosition=bottom;verticalAlign=top;html=1;outlineConnect=0;" vertex="1" parent="1">
          <mxGeometry x="610" y="40" width="30" height="60" as="geometry" />
        </mxCell>
        <mxCell id="nJJaMMxl7a4ijngkDydp-49" value="товар" style="rounded=0;whiteSpace=wrap;html=1;" vertex="1" parent="1">
          <mxGeometry x="700" y="60" width="90" height="50" as="geometry" />
        </mxCell>
        <mxCell id="nJJaMMxl7a4ijngkDydp-50" value="" style="endArrow=none;dashed=1;html=1;rounded=0;" edge="1" parent="1">
          <mxGeometry width="50" height="50" relative="1" as="geometry">
            <mxPoint x="745" y="320" as="sourcePoint" />
            <mxPoint x="744.5" y="130" as="targetPoint" />
          </mxGeometry>
        </mxCell>
        <mxCell id="nJJaMMxl7a4ijngkDydp-51" value="" style="rounded=0;whiteSpace=wrap;html=1;" vertex="1" parent="1">
          <mxGeometry x="735" y="191" width="20" height="50" as="geometry" />
        </mxCell>
      </root>
    </mxGraphModel>
  </diagram>
</mxfile>
